<svg preserveAspectRatio="xMidYMid meet" data-bbox="0 -0.001 61 24.001" xmlns="http://www.w3.org/2000/svg" viewBox="0 -0.001 61 24.001" height="24" width="61" data-type="shape" role="img" aria-labelledby="svgcid--avaz0bwo4i2x"><title id="svgcid--avaz0bwo4i2x">wix logo</title>
    <g>
        <path d="M0 .027S2.418-.278 4.03 1.15c.995.881 1.285 2.285 1.285 2.285l3.292 12.817 2.738-10.49c.266-1.115.747-2.494 1.507-3.426.97-1.187 2.939-1.262 3.149-1.262.21 0 2.178.075 3.147 1.262.76.932 1.241 2.31 1.508 3.426l2.738 10.49 3.291-12.817s.291-1.404 1.286-2.285C29.583-.278 32 .027 32 .027L25.696 23.98s-2.079.151-3.12-.382c-1.367-.7-2.016-1.24-2.844-4.5-.738-2.905-2.803-11.439-2.992-12.047-.093-.301-.204-1.018-.74-1.018-.524 0-.645.718-.74 1.018-.193.607-2.254 9.142-2.991 12.048-.828 3.259-1.478 3.8-2.845 4.499-1.041.533-3.12.382-3.12.382ZM37.998 4v.865H38v14.459c-.011 2.967-.298 3.626-1.546 4.309-.97.531-2.454.33-2.454.33V7.766c0-.813.252-1.346 1.181-1.824.555-.286 1.072-.505 1.61-.829.735-.44 1.108-.963 1.19-1.087L37.998 4ZM40 .107s3.257-.577 4.87.95c1.031.976 2.185 2.733 2.185 2.733l2.84 4.256c.137.221.317.462.605.462.287 0 .468-.24.606-.462l2.839-4.256s1.154-1.757 2.186-2.734C57.743-.47 61 .106 61 .106l-7.717 11.936 7.696 11.897s-3.332.446-4.945-1.081c-1.032-.976-2.089-2.565-2.089-2.565l-2.84-4.255c-.137-.222-.318-.463-.605-.463-.288 0-.468.24-.606.463l-2.839 4.255s-.999 1.589-2.03 2.565c-1.613 1.527-5.005 1.081-5.005 1.081l7.696-11.897ZM37.99 0H38c0 1.59-.15 2.535-1.11 3.269a5.982 5.982 0 0 1-1.46.827A4.438 4.438 0 0 0 34 5c0-2.896.423-3.945 1.56-4.566C36.434-.043 38 .001 38 .001Z" fill-rule="evenodd"/>
    </g>
</svg>